# xmcd
#
# Track frame offsets:
#	150
#	14111
#	26170
#	37866
#	50925
#	62670
#	76326
#	89449
#	103032
#	115841
#	128121
#	141817
#	154224
#	168003
#	180959
#	196518
#	209655
#	223297
#	234273
#
# Disc length: 3304 seconds
#
# Revision: 1
# Processed by: cddbd v1.5.1PL0 Copyright (c) Steve Scherf et al.
# Submitted via: audiograbber 1.81.02
#
DISCID=070ce613
DTITLE=Diverse - 20 Jahre Grand Prix der Volksmusik [CD2)
DYEAR=2005
DGENRE=Country
TTITLE0=Nella Martinetti - Bella Musica
TTITLE1=Maja Brunner - Das kommt uns spanisch vor
TTITLE2=Original Naabtal Duo - Patrona Bavariae
TTITLE3=Stefan Mross - Heimwehmelodie
TTITLE4=Kastelruther Spatzen - Tränen passen nicht zu Dir
TTITLE5=Alpentrio Tirol - Hast a bisserl Zeit für mi
TTITLE6=Stefanie Hertel - Über jedes Bacherl geht a Brückerl
TTITLE7=Die jungen Klostertaler - An a Wunder hob i glaubt
TTITLE8=Henry Arland and Söhne - Echo der Berge
TTITLE9=Geraldine Olivier - Nimm Dir wieder einmal Zeit
TTITLE10=Daniela de Santos and Dirk Schiefen - Monte Cristallo
TTITLE11=Sandra Weiss - Ich suche nicht das Paradies
TTITLE12=Francine Jordi - Das Feuer der Sehnsucht
TTITLE13=Monique - Einmal so, einmal so
TTITLE14=Oswald Sattler and Jantje Smit - Ich zeig Dir die Berge
TTITLE15=Marianne Cathomen - Hey Baby, küss mich noch mal
TTITLE16=Nockalm Quintett and Stefanie - Dort auf Wolke sieben
TTITLE17=Marc Pircher - Hey Diandl spürst es so wie I
TTITLE18=Die Ladiner - Beuge dich vor grauem Haar
EXTD=
EXTT0=
EXTT1=
EXTT2=
EXTT3=
EXTT4=
EXTT5=
EXTT6=
EXTT7=
EXTT8=
EXTT9=
EXTT10=
EXTT11=
EXTT12=
EXTT13=
EXTT14=
EXTT15=
EXTT16=
EXTT17=
EXTT18=
PLAYORDER=
